<svg xmlns="http://www.w3.org/2000/svg" width="88px" height="88px" viewBox="0 0 88 88"><circle fill="#3C4043" cx="56.8333333" cy="58.6666667" r="3.66666667"/><circle fill="#3C4043" cx="31.1666667" cy="58.6666667" r="3.66666667"/><path fill="#3C4043" d="M25.7033333,33 L62.37,33 L62.37,51.3333333 L25.7033333,51.3333333 L25.7033333,33 Z M65.2666667,10.2666667 C58.6666667,7.66333333 50.82,7.33333333 44,7.33333333 C37.18,7.33333333 29.3333333,7.66333333 22.7333333,10.2666667 C12.9433333,14.08 7.33333333,22.1833333 7.33333333,32.4866667 L7.33333333,80.6666667 L80.6666667,80.6666667 L80.6666667,32.4866667 C80.6666667,22.1833333 75.0566667,14.08 65.2666667,10.2666667 L65.2666667,10.2666667 Z M66,58.2266667 C66,63.5433333 61.6733333,67.8333333 56.3566667,67.8333333 L60.5,71.94 L60.5,73.3333333 L55,73.3333333 L49.5,67.8333333 L39.1233333,67.8333333 L33.6233333,73.3333333 L27.5,73.3333333 L27.5,71.94 L31.6066667,67.8333333 C26.3266667,67.8333333 22,63.5066667 22,58.2266667 L22,33 C22,23.3566667 33,22 44,22 C56.1733333,22 66,23.3933333 66,33 L66,58.2266667 L66,58.2266667 Z"/></svg>